<svg xmlns="http://www.w3.org/2000/svg" viewBox="0 0 640 360" role="img" aria-labelledby="title desc">
  <title id="title">math-006 circle-inscribed-angle</title>
  <desc id="desc">A circle with an inscribed angle, central angle, and radii from the center.</desc>
  <rect width="640" height="360" rx="18" fill="#ffffff"/>
  <rect x="16" y="16" width="608" height="328" rx="14" fill="#fffafa" stroke="#e7d3d5" stroke-width="2"/>
  
  <circle cx="320" cy="174" r="118" fill="#ffffff" stroke="#5c0a14" stroke-width="4"/>
  <line x1="320" y1="174" x2="236" y2="258" stroke="#5c0a14" stroke-width="3" stroke-linecap="round"/>
  <line x1="320" y1="174" x2="404" y2="258" stroke="#5c0a14" stroke-width="3" stroke-linecap="round"/>
  <line x1="320" y1="58" x2="236" y2="258" stroke="#9e2b25" stroke-width="3" stroke-linecap="round"/>
  <line x1="320" y1="58" x2="404" y2="258" stroke="#9e2b25" stroke-width="3" stroke-linecap="round"/>
  <line x1="236" y1="258" x2="404" y2="258" stroke="#e7d3d5" stroke-width="3" stroke-linecap="round"/>
  <path d="M 306.06 91.19 A 36 36 0 0 0 333.94 91.19" fill="none" stroke="#9e2b25" stroke-width="3" stroke-linecap="round"/>
  <path d="M 290.3 203.7 A 42 42 0 0 0 349.7 203.7" fill="none" stroke="#9e2b25" stroke-width="3" stroke-linecap="round"/>
  <path d="M 272 258 A 36 36 0 0 0 261.46 232.54" fill="none" stroke="#9e2b25" stroke-width="3" stroke-linecap="round"/>
  <circle cx="320" cy="174" r="5" fill="#9e2b25" stroke="#9e2b25" stroke-width="1"/>
  <circle cx="320" cy="58" r="5" fill="#9e2b25" stroke="#9e2b25" stroke-width="1"/>
  <circle cx="236" cy="258" r="5" fill="#9e2b25" stroke="#9e2b25" stroke-width="1"/>
  <circle cx="404" cy="258" r="5" fill="#9e2b25" stroke="#9e2b25" stroke-width="1"/>
  <text x="320" y="168" text-anchor="middle" font-family="ui-sans-serif, system-ui, sans-serif" font-size="18" font-weight="600" fill="#5c0a14">O</text>
  <text x="320" y="40" text-anchor="middle" font-family="ui-sans-serif, system-ui, sans-serif" font-size="18" font-weight="600" fill="#5c0a14">A</text>
  <text x="217" y="287" text-anchor="middle" font-family="ui-sans-serif, system-ui, sans-serif" font-size="18" font-weight="600" fill="#5c0a14">B</text>
  <text x="427" y="287" text-anchor="middle" font-family="ui-sans-serif, system-ui, sans-serif" font-size="18" font-weight="600" fill="#5c0a14">C</text>
  <text x="320" y="129" text-anchor="middle" font-family="ui-sans-serif, system-ui, sans-serif" font-size="17" font-weight="600" fill="#9e2b25">x°</text>
  <text x="320" y="238" text-anchor="middle" font-family="ui-sans-serif, system-ui, sans-serif" font-size="17" font-weight="600" fill="#9e2b25">2x°</text>
  <text x="320" y="324" text-anchor="middle" font-family="ui-sans-serif, system-ui, sans-serif" font-size="16" font-weight="600" fill="#9e2b25">∠CBO = ?</text>
  
</svg>
